<!-- Generator: Adobe Illustrator 26.2.1, SVG Export Plug-In . SVG Version: 6.00 Build 0)  -->
<svg version="1.1" baseProfile="basic" id="Livello_1" xmlns="http://www.w3.org/2000/svg" xmlns:xlink="http://www.w3.org/1999/xlink" x="0px" y="0px" width="500px" height="500px" viewBox="0 0 500 500" xml:space="preserve">
<style type="text/css">
	.st0{fill:url(#SVGID_1_);}
	.st1{fill:url(#XMLID_00000041262923950124157740000018020585372124777141_);}
	.st2{fill:url(#SVGID_00000154397282268733668430000012239139001056425137_);}
	.st3{fill:url(#SVGID_00000093172630681707555170000002641016150496755086_);}
	.st4{fill:url(#SVGID_00000168084445674077091500000011788681330917681027_);}
</style>
<g>
	<g>
		<linearGradient id="SVGID_1_" gradientUnits="userSpaceOnUse" x1="34.7721" y1="249.2037" x2="249.3469" y2="249.2037">
			<stop offset="2.371540e-02" style="stop-color:#E4054C" />
			<stop offset="0.3233" style="stop-color:#ED5427" />
			<stop offset="0.5758" style="stop-color:#F3900B" />
			<stop offset="0.6957" style="stop-color:#F6A700" />
		</linearGradient>
		<path class="st0" d="M226.1,273c-2.5-2.7-5.2-5.2-7.9-7.6c-0.1-0.1-0.2-0.2-0.3-0.3c-4.9-4.3-10.2-8.2-15.7-11.6    c-6.2-3.9-12.8-7.4-19.4-10.5c-6.9-3.3-14.1-6.3-21.6-8c-1.3-0.3-2.7-0.6-4.1-0.8c25.7,6.4,35.5,22.4,38.6,27.6    c5.3,8.7,7.4,18.8,7.4,30.4c0,11.4-2.4,21.3-7.5,30.3c-5,8.9-11.6,15.7-20.2,20.7c-8.6,5-18.1,7.5-29.2,7.5    c-10.8,0-20.2-2.5-28.8-7.5c-8.6-5-15.1-11.8-19.9-20.7c-4.9-9-7.3-19-7.3-30.4c0,0,0,0,0-0.1c0-0.1,0-0.3,0-0.4L90,256.5    c0.1-3.6,0.1-8.4,0.2-12.8c0.1-5.6,0.2-10.3,0.2-10.3l0-7l-0.3-98.8c0-9.9-5.6-17.6-9.1-21.1c-5-5-11.7-7.7-19.4-7.7    c-9.9,0-16.2,4.2-19.7,7.7c-2.8,2.8-7.2,7.6-7.2,19.5v118.4l0.1,23.9c0,0,0,15.4,0,23.3c0,1.5,0,3,0.1,4.5    c1.2,28.8,13.5,55.4,34.8,75c14.2,13.1,31.3,22,49.8,26c0,0,0,0,0,0c9,2,18.3,2.8,27.8,2.4c28.8-1.2,55.4-13.5,75-34.8    c13.1-14.2,22-31.3,26-49.8l1.1-6.1C244.6,295.3,236.1,283.4,226.1,273z" />
		
			<linearGradient id="XMLID_00000047053603644853947200000008014960712935769776_" gradientUnits="userSpaceOnUse" x1="90.0265" y1="280.3145" x2="389.5643" y2="280.3145">
			<stop offset="0" style="stop-color:#F3A400" />
			<stop offset="0.2431" style="stop-color:#FFD200" />
			<stop offset="0.3427" style="stop-color:#FAD101" />
			<stop offset="0.4623" style="stop-color:#EBCE06" />
			<stop offset="0.592" style="stop-color:#D3C90D" />
			<stop offset="0.7291" style="stop-color:#B1C217" />
			<stop offset="0.8703" style="stop-color:#86B923" />
			<stop offset="1" style="stop-color:#58AF31" />
		</linearGradient>
		<path id="XMLID_1_" style="fill:url(#XMLID_00000047053603644853947200000008014960712935769776_);" d="M381.8,339.1    c-6.5,3.2-13.8,5.3-21,5.6c-29.4,1.2-57.5-9.1-79.1-29c-9.8-9-17.6-20-23.5-31.9c-6.1-12.3-8.8-25.8-14.6-38.1    c-3.8-8.1-8.7-15.8-14.4-22.7c-3.1-3.8-6.6-7.4-10.2-10.7c-14.2-13.1-31.3-22-49.8-26c-9-2-18.4-2.8-27.8-2.4    c-18.4,0.8-35.8,6.1-51.1,15.3l0.1,34.3c0,0-0.2,14.9-0.3,23.1c0,0,0.2,35.2,0.3,35.2c0.1-11.4,2.5-21.2,7.3-30    c4.9-8.8,11.4-15.6,20.1-20.8c8.6-5.1,18-7.6,28.7-7.6c5,0,10,0.5,14.8,1.6c7.5,1.7,14.7,4.6,21.6,8c6.6,3.2,13.2,6.6,19.4,10.5    c5.5,3.5,10.8,7.4,15.7,11.6c0.1,0.1,0.2,0.2,0.3,0.3c2.7,2.4,5.4,4.9,7.9,7.6c11.4,11.9,20.8,25.8,25.1,41.8    c4.6,17.3,11.1,32.6,22.6,46.5c28.6,20.2,53.8,17.6,71.3,10.5c16.1-6.5,25.7-16.8,25.7-16.8l18.8-21.3    C387.6,335.7,384.2,338,381.8,339.1z" />
		
			<linearGradient id="SVGID_00000046301479952610112930000008720386758229063053_" gradientUnits="userSpaceOnUse" x1="299.5019" y1="333.583" x2="428.2739" y2="204.8111">
			<stop offset="0.4437" style="stop-color:#009CE1" />
			<stop offset="1" style="stop-color:#2B2468" />
		</linearGradient>
		<path style="fill:url(#SVGID_00000046301479952610112930000008720386758229063053_);" d="M465,273c0-0.2,0-0.4-0.1-0.7    c-0.1-1.5-0.3-3-0.5-4.5c-0.1-0.4-0.1-0.8-0.2-1.1c-0.2-1.3-0.4-2.6-0.6-3.9c0-0.2-0.1-0.4-0.1-0.6c0,0,0,0,0,0    c-0.4-1.8-0.8-3.6-1.2-5.3c-0.4-1.7-0.9-3.3-1.4-4.9c0,0,0,0,0,0c-8.3-25.9-26.3-41.4-34.5-47.4c-0.9-0.7-1.8-1.5-2.8-2.1    c-12.4-9.1-26.4-15.4-41.2-18.7v0c-9.2-2-18.7-2.9-28.4-2.5c-29.4,1.2-56.5,13.8-76.4,35.4c-13.1,14.3-22.1,31.3-26.3,49.7    c2,5.9,4.1,11.9,6.9,17.5c5.9,11.9,13.7,22.9,23.5,31.9c11.6,10.7,25.1,18.5,39.6,23.4l0,0c-5.7-4.4-10.3-9.9-13.9-16.6    c-4.9-9-7.3-19-7.3-30.4c0-11.6,2.4-21.6,7.3-30.5c4.9-8.8,11.4-15.6,20.1-20.8c8.6-5.1,18-7.6,28.7-7.6c11,0,20.5,2.5,29.1,7.6    c8.7,5.2,15.3,12,20.3,20.8c0.4,0.6,0.7,1.3,1,2l-42.6-0.1c-8.7,0-14.1,3.6-17.2,6.7c-4.4,4.4-6.7,10.2-6.7,16.9    c0,8.6,3.6,14.1,6.7,17.2c3.1,3.1,8.5,6.7,17.2,6.7h46.3h17.5h33c0,0,1.2-5,1.6-7.1c0.1-0.7,0.3-1.3,0.4-2    c0.3-1.4,0.6-2.8,0.8-4.2c0.1-0.7,0.2-1.4,0.3-2.2c0.2-1.3,0.4-2.6,0.5-3.9c0.1-0.7,0.1-1.4,0.2-2c0.1-1.4,0.2-2.7,0.3-4.1    c0-0.5,0.1-1.1,0.1-1.6c0.1-1.8,0.1-3.6,0.1-5.3c0,0,0-0.1,0-0.1C465.2,276.7,465.1,274.8,465,273z" />
		
			<linearGradient id="SVGID_00000067230445334779404530000015194827684412830897_" gradientUnits="userSpaceOnUse" x1="273.729" y1="363.1137" x2="438.7328" y2="363.1137">
			<stop offset="2.371540e-02" style="stop-color:#78170E" />
			<stop offset="0.6632" style="stop-color:#AD1A44" />
			<stop offset="1" style="stop-color:#C41B5B" />
		</linearGradient>
		<path style="fill:url(#SVGID_00000067230445334779404530000015194827684412830897_);" d="M422.6,327.9c-3.8-1.9-8.1-2.9-12.6-2.9    c-8,0-15.3,3.3-20.5,8.6c0,0,0,0,0,0l-18.8,21.2c0,0-0.1,0.1-0.1,0.1s-9.6,10.3-25.7,16.8c-15.8,6.4-37.7,9.1-62.8-5.1    c-2.8-1.6-5.6-3.4-8.5-5.4c3.2,3.8,6.6,7.5,10.4,10.9c14.5,13.4,31.9,22.4,50.7,26.5l0,0c9.2,2,18.7,2.9,28.3,2.5    c24.2-1,46.6-10.1,65-25.2c6.4-5.3,10.5-13.3,10.5-22.2C438.7,342.4,432.2,332.6,422.6,327.9z" />
		
			<linearGradient id="SVGID_00000035494888951752869280000016423377718873250452_" gradientUnits="userSpaceOnUse" x1="217.9399" y1="238.2136" x2="284.2085" y2="238.2136">
			<stop offset="0" style="stop-color:#80A22B" />
			<stop offset="1" style="stop-color:#3F5F27" />
		</linearGradient>
		<path style="fill:url(#SVGID_00000035494888951752869280000016423377718873250452_);" d="M277.6,216.7c2.1-2.3,4.3-4.5,6.6-6.5    c-29.8,17.6-58.1,5.4-66.3,1.2c0.4,0.3,0.7,0.6,1.1,1c3.6,3.3,7,6.9,10.2,10.7c5.7,6.9,10.6,14.6,14.4,22.7    c3.1,6.7,5.4,13.7,7.7,20.6C255.6,247.9,264.5,230.9,277.6,216.7z" />
	</g>
</g>
</svg>