<svg id="Livello_1" data-name="Livello 1" xmlns="http://www.w3.org/2000/svg" xmlns:xlink="http://www.w3.org/1999/xlink" viewBox="0 0 1370.07 200.13"><defs><style>.cls-1{fill:url(#linear-gradient);}.cls-2{fill:url(#linear-gradient-2);}.cls-3{fill:url(#linear-gradient-3);}.cls-4{fill:url(#Sfumatura_senza_nome_125);}.cls-5{fill:url(#linear-gradient-4);}.cls-6{fill:url(#Sfumatura_senza_nome_109);}.cls-7{fill:#3b365f;}.cls-8{fill:url(#linear-gradient-5);}.cls-9{fill:url(#linear-gradient-6);}.cls-10{fill:url(#linear-gradient-7);}.cls-11{fill:#009d62;}.cls-12{fill:#93b849;}.cls-13{fill:url(#linear-gradient-8);}.cls-14{fill:url(#linear-gradient-9);}</style><linearGradient id="linear-gradient" x1="687.72" y1="115.69" x2="751.72" y2="115.69" gradientUnits="userSpaceOnUse"><stop offset="0" stop-color="#93b849"/><stop offset="0.22" stop-color="#96b947"/><stop offset="0.4" stop-color="#a1bb3f"/><stop offset="0.58" stop-color="#b3be33"/><stop offset="0.75" stop-color="#ccc322"/><stop offset="0.92" stop-color="#ecc90d"/><stop offset="1" stop-color="#ffcd00"/></linearGradient><linearGradient id="linear-gradient-2" x1="817.68" y1="105.45" x2="889.12" y2="105.45" gradientUnits="userSpaceOnUse"><stop offset="0.02" stop-color="#e4054c"/><stop offset="0.32" stop-color="#ed5427"/><stop offset="0.58" stop-color="#f3900b"/><stop offset="0.7" stop-color="#f6a700"/></linearGradient><linearGradient id="linear-gradient-3" x1="836.08" y1="115.8" x2="935.8" y2="115.8" gradientUnits="userSpaceOnUse"><stop offset="0" stop-color="#f3a400"/><stop offset="0.24" stop-color="#ffd200"/><stop offset="0.34" stop-color="#fad101"/><stop offset="0.46" stop-color="#ebce06"/><stop offset="0.59" stop-color="#d3c90d"/><stop offset="0.73" stop-color="#b1c217"/><stop offset="0.87" stop-color="#86b923"/><stop offset="1" stop-color="#58af31"/></linearGradient><linearGradient id="Sfumatura_senza_nome_125" x1="905.81" y1="133.54" x2="948.68" y2="90.67" gradientUnits="userSpaceOnUse"><stop offset="0.44" stop-color="#009ce1"/><stop offset="1" stop-color="#2b2468"/></linearGradient><linearGradient id="linear-gradient-4" x1="897.23" y1="143.37" x2="952.16" y2="143.37" gradientUnits="userSpaceOnUse"><stop offset="0.02" stop-color="#78170e"/><stop offset="0.66" stop-color="#ad1a44"/><stop offset="1" stop-color="#c41b5b"/></linearGradient><linearGradient id="Sfumatura_senza_nome_109" x1="878.66" y1="101.79" x2="900.72" y2="101.79" gradientUnits="userSpaceOnUse"><stop offset="0" stop-color="#80a22b"/><stop offset="1" stop-color="#3f5f27"/></linearGradient><linearGradient id="linear-gradient-5" x1="106.96" y1="214.85" x2="139.11" y2="32.52" gradientUnits="userSpaceOnUse"><stop offset="0" stop-color="#009d62"/><stop offset="0.23" stop-color="#009d62"/><stop offset="0.68" stop-color="#93b849"/><stop offset="0.75" stop-color="#a5bc3d"/><stop offset="0.89" stop-color="#d5c51c"/><stop offset="1" stop-color="#ffcd00"/></linearGradient><linearGradient id="linear-gradient-6" x1="-2.53" y1="53.35" x2="70.9" y2="26.62" gradientUnits="userSpaceOnUse"><stop offset="0" stop-color="#009d62"/><stop offset="0.58" stop-color="#93b849"/><stop offset="1" stop-color="#dcd600"/></linearGradient><linearGradient id="linear-gradient-7" x1="98.33" y1="51.74" x2="124.2" y2="6.94" gradientUnits="userSpaceOnUse"><stop offset="0" stop-color="#93b849"/><stop offset="0.02" stop-color="#97b946"/><stop offset="0.22" stop-color="#bcc02d"/><stop offset="0.42" stop-color="#d9c619"/><stop offset="0.62" stop-color="#eeca0b"/><stop offset="0.81" stop-color="#fbcc03"/><stop offset="1" stop-color="#ffcd00"/></linearGradient><linearGradient id="linear-gradient-8" x1="377.94" y1="139.99" x2="403.05" y2="96.51" xlink:href="#linear-gradient"/><linearGradient id="linear-gradient-9" x1="413.04" y1="98.44" x2="444.99" y2="116.88" gradientUnits="userSpaceOnUse"><stop offset="0" stop-color="#ffcd00"/><stop offset="0.08" stop-color="#ecc90d"/><stop offset="0.25" stop-color="#ccc322"/><stop offset="0.42" stop-color="#b3be33"/><stop offset="0.6" stop-color="#a1bb3f"/><stop offset="0.78" stop-color="#96b947"/><stop offset="1" stop-color="#93b849"/></linearGradient></defs><path class="cls-1" d="M751.72,123.89H728.33v22.86H711V123.89H687.72v-16.4H711V84.63h17.35v22.86h23.39Z"/><path class="cls-2" d="M881.37,113.35c-.83-.88-1.72-1.72-2.63-2.52a.52.52,0,0,0-.11-.1,42,42,0,0,0-5.22-3.88,63.85,63.85,0,0,0-6.45-3.51,34.1,34.1,0,0,0-7.19-2.65c-.44-.1-.9-.18-1.35-.26,8.54,2.13,11.81,7.46,12.86,9.2a19.16,19.16,0,0,1,2.47,10.13,20.19,20.19,0,0,1-2.48,10.08,17.88,17.88,0,0,1-6.71,6.9,18.66,18.66,0,0,1-9.72,2.5,18.43,18.43,0,0,1-9.6-2.5,17.49,17.49,0,0,1-6.64-6.87,20.55,20.55,0,0,1-2.44-10.11v-.17l-.08-11.72c0-1.19,0-2.81.06-4.25,0-1.86.05-3.43.05-3.43V97.85L836.1,65a10.32,10.32,0,0,0-3-7,8.89,8.89,0,0,0-6.44-2.56,9,9,0,0,0-6.57,2.56c-.93.93-2.39,2.54-2.39,6.5v39.42l0,8v7.77c0,.49,0,1,0,1.49a36,36,0,0,0,28.14,33.61h0a36.15,36.15,0,0,0,9.26.81,36,36,0,0,0,33.61-28.14l.36-2A33.93,33.93,0,0,0,881.37,113.35Z"/><path class="cls-3" d="M933.22,135.37a18.09,18.09,0,0,1-7,1.87,36.41,36.41,0,0,1-26.33-9.65A36,36,0,0,1,892.08,117c-2-4.09-2.93-8.58-4.86-12.7a36.07,36.07,0,0,0-24.76-19.79,36.26,36.26,0,0,0-9.27-.81,35.6,35.6,0,0,0-17,5.1l0,11.41s-.07,5-.11,7.68c0,0,.08,11.72.09,11.72a20.3,20.3,0,0,1,2.43-10,18,18,0,0,1,6.67-6.91,18.21,18.21,0,0,1,9.57-2.53,22,22,0,0,1,4.93.53,34.1,34.1,0,0,1,7.19,2.65,63.85,63.85,0,0,1,6.45,3.51,42,42,0,0,1,5.22,3.88.52.52,0,0,1,.11.1c.91.8,1.8,1.64,2.63,2.52a32.5,32.5,0,0,1,8.35,13.92,38.82,38.82,0,0,0,7.51,15.47c9.54,6.71,17.91,5.85,23.74,3.49a26.12,26.12,0,0,0,8.56-5.59l6.27-7.09A9.94,9.94,0,0,1,933.22,135.37Z"/><path class="cls-4" d="M960.9,113.38c0-.07,0-.14,0-.22,0-.51-.09-1-.16-1.5,0-.13,0-.25-.05-.38-.06-.44-.13-.87-.21-1.3l0-.19h0c-.11-.61-.25-1.2-.4-1.78s-.31-1.11-.48-1.65h0a32,32,0,0,0-11.48-15.78c-.31-.24-.61-.49-.93-.71a36.12,36.12,0,0,0-13.71-6.22h0a36.66,36.66,0,0,0-34.88,11,36.22,36.22,0,0,0-8.75,16.53,47.76,47.76,0,0,0,2.29,5.84,36,36,0,0,0,7.83,10.61,36.48,36.48,0,0,0,13.17,7.79h0a17.62,17.62,0,0,1-4.63-5.51,22.31,22.31,0,0,1,0-20.27,18.16,18.16,0,0,1,16.25-9.44,18.36,18.36,0,0,1,16.44,9.47c.12.22.22.44.34.66l-14.17,0a7.83,7.83,0,0,0-5.72,2.23,7.74,7.74,0,0,0-2.23,5.61,7.65,7.65,0,0,0,7.95,8h32.24s.39-1.67.54-2.36c0-.22.09-.44.13-.65q.15-.72.27-1.41c0-.25.07-.49.11-.73.06-.43.12-.87.17-1.3,0-.23,0-.45.07-.68,0-.46.07-.9.1-1.35l0-.54c0-.6,0-1.19,0-1.77v0C961,114.6,960.94,114,960.9,113.38Z"/><path class="cls-5" d="M946.81,131.65a9.54,9.54,0,0,0-11,1.9h0l-6.24,7.07,0,0a26.12,26.12,0,0,1-8.56,5.59c-5.24,2.13-12.55,3-20.92-1.7-.93-.53-1.86-1.12-2.82-1.79a36,36,0,0,0,3.46,3.64,36.33,36.33,0,0,0,16.88,8.82h0a36.26,36.26,0,0,0,31.08-7.58,9.55,9.55,0,0,0-1.85-16Z"/><path class="cls-6" d="M898.54,94.61c.7-.76,1.43-1.48,2.18-2.17-9.92,5.86-19.33,1.81-22.06.38l.36.32a36.34,36.34,0,0,1,8.2,11.14,65.09,65.09,0,0,1,2.57,6.86A36.22,36.22,0,0,1,898.54,94.61Z"/><path class="cls-7" d="M1370,113.35a1.49,1.49,0,0,1,0-.21c0-.51-.09-1-.16-1.51,0-.12,0-.25,0-.38-.06-.44-.13-.87-.21-1.3l0-.19h0c-.12-.61-.25-1.2-.4-1.78s-.31-1.11-.48-1.65h0a32,32,0,0,0-11.48-15.78l-.92-.71a36.19,36.19,0,0,0-13.71-6.22h0a36.73,36.73,0,0,0-9.45-.82,37.33,37.33,0,0,0-5.51.64,36.64,36.64,0,0,0-27.32,22.91l-.07,0s-.4,1-.87,2.73c0,.15-.08.31-.13.46s-.05.23-.08.34c-.14.53-.29,1.07-.41,1.61a.14.14,0,0,1,0,.06c-1,4.66-1.65,11.8.92,18.74a36.19,36.19,0,0,0,6.71,12.41,37,37,0,0,0,3.45,3.64,36.52,36.52,0,0,0,16.89,8.83h0a37,37,0,0,0,9.43.82,35.84,35.84,0,0,0,8.12-1.29,27,27,0,0,0,17.37-11.56,8.37,8.37,0,0,0-14-9.16,9.19,9.19,0,0,1-2,2.18c-.4.28-.82.54-1.23.78a14.09,14.09,0,0,1-3.21,1.31l-.35.06h.15a29.07,29.07,0,0,1-7.45.92,18.43,18.43,0,0,1-9.6-2.5,16.43,16.43,0,0,1-2.09-1.44l.23.08a17.62,17.62,0,0,1-4.63-5.51,22.31,22.31,0,0,1,0-20.27,18,18,0,0,1,6.68-6.91,17.46,17.46,0,0,1,5.71-2.18h0a20,20,0,0,1,3.85-.35,18.33,18.33,0,0,1,16.43,9.47c.12.21.22.42.33.63h-.15l0,0-14,0a7.83,7.83,0,0,0-5.72,2.23,7.74,7.74,0,0,0-2.23,5.61,7.64,7.64,0,0,0,8,8h32.37s.39-1.69.54-2.39c0-.22.09-.43.13-.65.1-.47.19-1,.27-1.41,0-.24.07-.48.11-.72.06-.44.12-.87.17-1.3,0-.23.05-.46.07-.69,0-.45.07-.9.09-1.34,0-.19,0-.37,0-.55q0-.9,0-1.77v0C1370.06,114.57,1370,114,1370,113.35Z"/><path class="cls-7" d="M1014.48,85.54a34.5,34.5,0,0,0-14.69-3.15A33.39,33.39,0,0,0,982,87.21a34.18,34.18,0,0,0-12.17,13,38.39,38.39,0,0,0-4.41,18.41A36.93,36.93,0,0,0,970,137a34.67,34.67,0,0,0,12.66,13,35.19,35.19,0,0,0,18.28,4.78c9.39,0,17.38-3,23.73-8.78a7.42,7.42,0,0,0,2.48-6.41,8.82,8.82,0,0,0-2.92-5.58l-.19-.16a8.06,8.06,0,0,0-5.81-1.88,9.32,9.32,0,0,0-5.29,2.25l-.09.07a14.1,14.1,0,0,1-5.05,2.86,22.64,22.64,0,0,1-6.86,1,18,18,0,0,1-9.56-2.48,16.87,16.87,0,0,1-6.42-6.79,21.44,21.44,0,0,1-2.36-10.22,23,23,0,0,1,2.24-10.42,16.43,16.43,0,0,1,6-6.76,16.25,16.25,0,0,1,9-2.41,17,17,0,0,1,13.43,6,8.82,8.82,0,0,0,5.17,3.09,7.7,7.7,0,0,0,6.11-1.36,8.8,8.8,0,0,0,3.65-5.26,7.45,7.45,0,0,0-1.85-6.67A33.61,33.61,0,0,0,1014.48,85.54Z"/><path class="cls-7" d="M1083.62,86.15a35.17,35.17,0,0,0-16.55-3.88,32.46,32.46,0,0,0-15.55,3.78l-1,.54V65a8.72,8.72,0,1,0-17.44,0v80.56a8.58,8.58,0,0,0,2.46,6.2,8.69,8.69,0,0,0,6.32,2.46,8.41,8.41,0,0,0,8.66-8.66V111.65a10.32,10.32,0,0,1,1.86-6.11,13.69,13.69,0,0,1,5.48-4.53,20.53,20.53,0,0,1,16.81.1,12.82,12.82,0,0,1,5.52,5.18,18.73,18.73,0,0,1,2.09,9.48v29.76a8.54,8.54,0,0,0,2.52,6.14,8.66,8.66,0,0,0,6.26,2.52,8.6,8.6,0,0,0,8.67-8.66V115.77c0-7-1.44-13-4.29-18A29.17,29.17,0,0,0,1083.62,86.15Z"/><path class="cls-7" d="M1158,87.15a37.9,37.9,0,0,0-36.78,0,35.11,35.11,0,0,0-13,13,36.37,36.37,0,0,0-4.76,18.52,36.83,36.83,0,0,0,4.62,18.37,34.39,34.39,0,0,0,30.6,17.76,33.41,33.41,0,0,0,17.1-4.42,32.35,32.35,0,0,0,2.85-1.85,8.4,8.4,0,0,0,2.12,3.31,9.2,9.2,0,0,0,12.38,0,8.41,8.41,0,0,0,2.59-6.26v-27a37.44,37.44,0,0,0-4.87-18.47A35.42,35.42,0,0,0,1158,87.15Zm-18.37,51a18.43,18.43,0,0,1-9.6-2.5,18.2,18.2,0,0,1-6.78-6.93,21.36,21.36,0,0,1,0-20.15,18.85,18.85,0,0,1,6.82-7,19.47,19.47,0,0,1,19.18,0,18.51,18.51,0,0,1,6.71,7,21.79,21.79,0,0,1,0,20.21,18,18,0,0,1-6.67,6.91A18.39,18.39,0,0,1,1139.62,138.12Z"/><path class="cls-7" d="M1227.56,93.54a.36.36,0,0,0,0-.1c.93-3.85-.71-7.28-4.38-9.19-2.56-1.33-5.86-2-10.11-2a27.64,27.64,0,0,0-14.27,3.81c-.67.39-1.33.81-2,1.26a7.61,7.61,0,0,0-1.44-2,8.67,8.67,0,0,0-14.92,6.26v53.9a8.67,8.67,0,1,0,17.34,0V111.31a10.73,10.73,0,0,1,2.05-6.68,12.92,12.92,0,0,1,6-4.33,21.34,21.34,0,0,1,9.47-1h.13c1.28.07,2.42.15,3.43.22a9,9,0,0,0,5-.94A7.56,7.56,0,0,0,1227.56,93.54Z"/><path class="cls-7" d="M1275.92,87a39.41,39.41,0,0,0-37,0,33.79,33.79,0,0,0-13,12.89,37.25,37.25,0,0,0-4.69,18.73,38.2,38.2,0,0,0,4.48,18.56,33.17,33.17,0,0,0,12.54,12.93,35.7,35.7,0,0,0,18.2,4.64,31.63,31.63,0,0,0,16.45-4.32c.79-.47,1.56-1,2.29-1.51a19.46,19.46,0,0,1-1.54,3.81,17.94,17.94,0,0,1-6.61,7,17.67,17.67,0,0,1-9.34,2.47,23.4,23.4,0,0,1-10.19-2.08,20.25,20.25,0,0,1-7-5.42,8.8,8.8,0,0,0-5.47-3.29,8.48,8.48,0,0,0-6.57,1.38,7.85,7.85,0,0,0-1.44,11.91,35.84,35.84,0,0,0,12.75,10.33,40,40,0,0,0,17.81,3.82,35.16,35.16,0,0,0,18.48-4.91,35.58,35.58,0,0,0,12.76-13.27A38.06,38.06,0,0,0,1293.5,142V118.57a38.57,38.57,0,0,0-4.73-18.65A33.69,33.69,0,0,0,1275.92,87Zm-18.55,51.11a19.25,19.25,0,0,1-9.86-2.46,17.22,17.22,0,0,1-6.62-6.76,21,21,0,0,1-2.43-10.27,21.32,21.32,0,0,1,2.44-10.34,17.17,17.17,0,0,1,6.61-6.8,19.27,19.27,0,0,1,9.86-2.45,18.94,18.94,0,0,1,9.78,2.44,17.16,17.16,0,0,1,6.57,6.81,21.24,21.24,0,0,1,2.45,10.34,20.94,20.94,0,0,1-2.44,10.27,17.25,17.25,0,0,1-6.57,6.77A18.91,18.91,0,0,1,1257.37,138.12Z"/><path class="cls-8" d="M61.57,131A39.32,39.32,0,0,1,50,127.63s-.89-.53-.89.31l0,7.59c-.47,3.77,2.19,5.52,5.51,5.64,2.51.09-.29,3.2-1.53,4.73-1.84,2.27-2.26,3.87-1.45,4.93s1.34,0,3.7,2.08a38,38,0,0,0-3.34,4.7s-1.76,2.73,2.45,4h0c-1.08,3.33-2.81,3.93-3.71,5.85s2.17,3.88,1.91,4c-5,3.22-8.68,6.93-9.3,9.29-1.77,5.09-2.73,11-3.88,16a4.63,4.63,0,0,1-3.69,3.18c-4.85.19-8.53,0-12.75,0-1.39,0-.8-1.05-.8-1.05,4.46-8.11,14.63-14.76,13-24.77C30.8,147.29,23,129.92,18.58,106.39c-1.68-9,1.68-22.77,2.84-24,.9-1,2.91,3.5,6.12,3.34,0,0,5-6.32,8-7.79C38,77.63,46.85,81,46.86,81c1-.19,2.4-5.64,2.87-8.43a14.24,14.24,0,0,0,8.55-.35c5.91-2.58,5.65-4.65,6.6-4.55,1.78.19,3.47,3.61,3.63,5.78,0,0,0,2.23,1.2,1.92,3.49-.9,6.09-4.94,7.44-4.89,1.43.26,2.89,3.87,3.26,6.6,0,0,.25,1.61,2.2.85,1.74-.68,2.73-1.3,5.74-3.48a.69.69,0,0,1,1,.4c1.59,3.26,1.73,6.37,3.68,6.56,1.67.17,3.09-1.13,3.81-1.94.58-.65,2.29-2.3,2.94-2.1s1.09,4.1,3.89,5.5c1.29.65,2.24-.31,3-2.22.49-1.23,1.71-2.67,2.15-2.59s1.08,2.24,2.74,3.23c1.4.83,3.07,1,3.27.07.49-2.27,2.23-3.89,2.57-3.18a7.35,7.35,0,0,0,2.26,2.43,4.46,4.46,0,0,0,3.51.86c4.34-.49,7.3-4,6.48-4.39-4-2.17-5.49-6.53-5.78-9.53.1-1.78.13-6.4,4.41-8.22,2-.85,5.35-.81,7,.6a6.1,6.1,0,0,1,2.39,4.88c0,1.8-.42,3.59-2,4.48a4.44,4.44,0,0,1-4.38-.28c-1.08-.82-1.52-2.42-2.42-3h-.26c-.88,2.09.54,4.51,1.71,6,2.43,2.75,6.33,2.56,7.57,1.76h0c4.59-1.77,8.43-11.19,9.32-13.37,1.8-4.44,3.21-9.33,5.74-13.86,2.21-4,7.76-8.47,16.52-8.47,7.43,0,15.77,6.61,16.27,16.28.42,8.21-2.46,11.19-5.6,14.78-2,2.25-2.24,2.88-1.47,3.48a21.65,21.65,0,0,1,4.72,4.19c7.38,9,10.62,19.52,14.76,30,1.06,2.53,1.49,5.49,2.8,7.79,5.7,7.24,11.17,9.56,12,10.53.49.6-.63.78-.65,2.47a2.48,2.48,0,0,0,2,1.57c.45,0,2.94.4,2.49,1.13-1.45,2.37-2.27,4-2.07,5.5.23,1.75,1.14-.05,3.53.19.58.06.81.39.51.89a12.7,12.7,0,0,0-1.9,5.13,2.7,2.7,0,0,0,3.17,3.16.37.37,0,0,1,.45.43c-.19.77-1.66,1.41-2.3,3.59-1.42,4.8-.54,7.77,3.51,12.44,1.67,1.92,2.66,1.88,3.86,3.38h0c-5.07,4.53-4.33,10.88-5.17,14.61a1.47,1.47,0,0,1-1.2,1.21l-15.55,2.45c-1.27.19-2.24-.28-.78-2,3.8-4.55,8.75-9.11,11.42-13.91h0a19.56,19.56,0,0,0-2.44-5.37c-5.08-8.24-9.77-15.89-14.52-24.26-2.7-4.77-3.91-4.54-3.91-4.54-11.5-2.12-18.76-4-27.32-9.49-.62-.18-.59.6-.59.6,0,2.2-.3,10.14.62,11.51,2.78,4.11,8.45,4.67,8.45,4.67h0s.85,1.37-1.84,3.66a.74.74,0,0,0-.34.87c.43,1.1,1.87,1.14,3,.92.65-.13-.4,1.84-2.5,3.8-.49.46.16,2.09.88,2.53.2.13.25.29.11.48-.72.93-3.86,3.37-3.82,5.11l.62,10.33a1,1,0,0,1-.15.52,1.51,1.51,0,0,1-.74.37l-15.26,3.8a1.16,1.16,0,0,1-1.24-.47c-.39-.54.17-1.36.17-1.36l9.35-14.13.48-.78c.59-3.29-2.29-6.28-4.16-8.63a110.1,110.1,0,0,0-8.32-9c-2.8-2.41-4.76-11.25-5.44-13.73-.26-.93-1.24-.53-2.07.25a29.81,29.81,0,0,0-4.59,6,13.28,13.28,0,0,0-.87,5.57c.31,1,1.06,2.72,4.66,2.65h0a6.3,6.3,0,0,1-2.13,4.31s-.65.28-.2.71a17.26,17.26,0,0,0,2.49,1.93,11,11,0,0,1-2,3.68c-2.32,2.9.86,2.35.86,2.35a26.86,26.86,0,0,1-2.31,4.93c-2.57,4.31-.79,10.52-1.21,13.65-.1.7-1,1.34-2.14,1.48l-15.94.6c-.95,0-.85-1.16-.3-1.81l11-13.4c.86-1.17,0-2-.33-2.45,0,0-7-9.43-9.28-17-.9-3-1.69-7-1.69-7-2.37.3-8.84,1.19-8.38,4.56-.56,1.53,1.35,6.86,2.69,6.9h0s.13,1.68-2.06,2.39c-2.57.83-5.11,2.81-4.76,3.77a2.73,2.73,0,0,0,2.06,1.16v.16c-2.36,3.28-4.74,2.5-6.81,4.2-.73.6-.83,1.82,1.53,1.82h0c-1.89,2.05-3,1.74-4.23,2.38,0,0-2.14.78-1.73,1.57,1.09,2,1.43,1.57.64,2.47a4.89,4.89,0,0,1-3,2,8.13,8.13,0,0,0-2.34,1.2c-1.17,1.21-.79,2.32-1.55,4.26a40.28,40.28,0,0,1-5.1,9.44.52.52,0,0,1-.84.08l-10-8.44a1.63,1.63,0,0,1-.4-1.85c1-2.14,3-2.77,5.06-4a31.16,31.16,0,0,0,8-6.27,5.32,5.32,0,0,0,.8-2c1.22-7.83,3.63-16.72,5.36-24.32.46-2.35-2.11-1.81-2.11-1.81-3.52.58-6.24,1.23-9,1-.87-.06-1.09.31-1.82,2-.92,2.11-2.26,6.69-1,8.38,2.18,2.91,4.7,1.81,4.63,2.09-.75,2.88-3.2,4.09-4.08,4.83-1.1.93-1.41,1.57-1.47,2s.13,2.1,2.61,1.71l0,.27a11.9,11.9,0,0,1-3.18,3.9,23,23,0,0,0-2.59,2.23c-.45.58-.54,1.9,1.37,1.86l0,.45s-1.21,3-3.47,4.16a8.14,8.14,0,0,0-2.91,3.1c-1.54,3.19-3.28,11.8-4.63,10.85-2.75-1.93-9.38-8.06-9.38-8.06a2.25,2.25,0,0,1-.86-1.13c-.32-1.55,3.15-3,4.38-4.15,2-1.78,4.83-3.12,5.24-6.94.58-5.47-1.26-10.56-2-13.83-.81-3.57-2.2-10.15-2-13.65C62.07,131.09,61.57,131,61.57,131Zm81.17-54.42c-.2.21-.28.5.09.52,3.23,0,7.06-1.73,10.14-3.66a24.59,24.59,0,0,0,7.78-7.32s1.66.31,7.71,0,10.17-4.31,10.47-10c.36-6.87-6.08-13-13.3-11-5.12,1.42-6.68,5.09-8.68,8.46-3.28,5.51-7,15.44-13.83,22.62,0,0-.15.14-.38.38M96.86,79.5c.58-.65,2.41-2.53,2.94-2.1,1,.83,1.09,4.1,3.89,5.5"/><path class="cls-9" d="M50.53,34.72c3.21-2.75,6-4.72,17.21-10.47,1.06-.54-1.06-7.49-2.13-12.08a2.1,2.1,0,0,0-2.26-1.87c-14.29,3.7-27,10.42-29.83,7.52,0,0,0,0-.05,0L19.1,6.92c-1.19-.9-2.42-.13-2.23,1.36.71,5.6,1.37,8.85,1.85,12.25.1.78,0,1.2-.59,1.2-3.25,0-6.36,2.33-8.27,5.68-2.68,4.71-5.13,9-9.55,11.16a.53.53,0,0,0-.26.7,7.15,7.15,0,0,0,4.21,3.41c1.81.62,2.66.21,4,.89a.53.53,0,0,1,.26.61A6.26,6.26,0,0,1,8,45.24c-3.7,6.65.57,15.12-5.74,20.31a.5.5,0,0,0,.19.88c7.35,1.27,9.61-4,10.51-3-2.21,6.69-1.13,7.62-2.52,16.16-.31,1.9-1.67,4.37-.47,4,9.56-2.79,11.29-6.64,12-7.33s1-2.62,3.12.93c.47.77,1.16,1.73,1.51,1.56.26,0,.65-.61.8-.82a15.35,15.35,0,0,1,6.78-5.33.8.8,0,0,1,.38-.12c3.3.33,6.09,1.46,9.91,3a.51.51,0,0,0,.69-.31c1.67-5.48-1-10.44-.94-11.16s.45-.36,1.81,1C49,68,53.52,68.16,56.21,67.46a7.65,7.65,0,0,0,4-2.3.54.54,0,0,0-.4-.82c-8.15-1.17-8.58-9.52-12-15.13-.19-.31-.36-.81-.23-.9l2.57,1.3S61.53,52,62,52.12c1.14.18,1.68-1.1,1.68-1.1a22,22,0,0,0,.75-5.54c0-1.1-1.24-1.78-1.78-1.22a6.05,6.05,0,0,1-.65.61A1.18,1.18,0,0,1,61,45,45.07,45.07,0,0,1,54,42.66l-4.1-6.55C49.59,35.28,50.27,34.94,50.53,34.72ZM40.26,31.26A3.38,3.38,0,0,1,37,27.66a3.37,3.37,0,0,1,3.25-3.58,3.44,3.44,0,0,1,3.55,3.58A3.44,3.44,0,0,1,40.26,31.26Z"/><path class="cls-10" d="M98.72,49l13-11.56s1.66-1.7,3.5-1.08a3.9,3.9,0,0,1,2.14,2.32c.29.68,5.45,11.77,5.45,11.77s.84,1.84,2.38,1.69a2.48,2.48,0,0,0,2-2.55l-.65-12.81s-.14-2.08,1.08-2.72a2.57,2.57,0,0,1,2.62.3c.92.59,5.85,4.46,5.91,4.5,3.69,2.8,5.92.38,5.36-1.53s-3.63-5.95-3.63-5.95-3.21-4.54-3.71-5.41-1.06-1.7-.72-2.67A2.29,2.29,0,0,1,134.65,22a3.13,3.13,0,0,1,1.75-.08c1.11.2,2.94-.55,1.67-2.39a22.36,22.36,0,0,0-8.38-6.42,12.87,12.87,0,0,1-.61,14c-4.23,5.64-12.66,6.4-18.82,1.69s-7.73-13.1-3.5-18.74a12.61,12.61,0,0,1,13.47-4.32h0a30.79,30.79,0,0,0-5.12-4c-7-4.18-6.7.66-6.7.66s.14,2.18-.28,2.76-.81,1.52-5.06.81l-4.24-.71c-7.58-1.46-8.59-1.61-9.38.14C88.56,7.36,93,10,93,10L99.47,14a1.73,1.73,0,0,1,.79,1.39c-.05.7-.22,1-1.28,1.5s-13.73,5.62-13.85,5.67-2.29,1.06-1,3a3.14,3.14,0,0,0,2.46.71c1.53-.05,12.07-.07,12.07-.07s2.25-.26,3.29,1.28c.82,1.21-.2,3.54-.2,3.54l-7.25,14.6s-1.39,2.7.35,4.07S98.72,49,98.72,49Z"/><path class="cls-11" d="M292.81,115.92c0,12.72-8.8,21-20.75,21-5.21,0-9.8-1.77-13.1-5.52v19.85h-9.57V95.45h9.11v5.37c3.22-3.91,8-5.83,13.56-5.83C284,95,292.81,103.27,292.81,115.92Zm-9.72,0c0-7.82-5.21-12.8-12.1-12.8s-12.18,5-12.18,12.8,5.28,12.8,12.18,12.8S283.09,123.73,283.09,115.92Z"/><path class="cls-11" d="M301.93,79.51h9.57v56.87h-9.57Z"/><path class="cls-12" d="M362.35,119H330.26c1.15,6,6.13,9.81,13.25,9.81a14.65,14.65,0,0,0,11.11-4.44l5.13,5.9c-3.68,4.37-9.42,6.67-16.47,6.67-13.7,0-22.59-8.82-22.59-21S329.65,95,341.83,95c11.95,0,20.68,8.36,20.68,21.16C362.51,116.91,362.43,118.06,362.35,119Zm-32.16-6.36h23.2c-.76-5.9-5.28-10-11.56-10A11.3,11.3,0,0,0,330.19,112.62Z"/><path class="cls-13" d="M412,112.93v23.45h-9.57V114.15c0-7.28-3.6-10.8-9.73-10.8-6.81,0-11.41,4.14-11.41,12.34v20.69H371.7V95.45h9.11v5.29C384,97,388.93,95,394.9,95,404.71,95,412,100.59,412,112.93Z"/><path class="cls-14" d="M422.86,83A5.83,5.83,0,0,1,429,77.21c3.52,0,6.12,2.38,6.12,5.52a6.13,6.13,0,0,1-12.25.23Zm1.3,12.49h9.57v40.93h-9.57Z"/><path class="cls-11" d="M470.88,134.16a15,15,0,0,1-9.19,2.76c-9,0-14.09-4.76-14.09-13.8v-19.7h-6.74V95.76h6.74V86.41h9.57v9.35h10.95v7.66H457.17v19.47c0,4,2,6.13,5.67,6.13a8.61,8.61,0,0,0,5.36-1.68Z"/><path class="cls-11" d="M518.36,95.45v40.93h-9.11v-5.21a16.72,16.72,0,0,1-13.17,5.75c-10.5,0-17.62-5.75-17.62-18.09V95.45H488v22.08c0,7.43,3.53,11,9.58,11,6.66,0,11.18-4.14,11.18-12.34V95.45Z"/><path class="cls-11" d="M571,79.51v56.87h-9.19v-5.29c-3.22,3.91-8,5.83-13.56,5.83-11.87,0-20.68-8.28-20.68-21S536.36,95,548.23,95c5.29,0,10,1.77,13.18,5.52v-21Zm-9.42,36.41c0-7.82-5.28-12.8-12.18-12.8s-12.18,5-12.18,12.8,5.29,12.8,12.18,12.8S561.56,123.73,561.56,115.92Z"/><path class="cls-11" d="M621.83,119H589.74c1.15,6,6.13,9.81,13.25,9.81a14.65,14.65,0,0,0,11.11-4.44l5.13,5.9c-3.68,4.37-9.42,6.67-16.47,6.67-13.71,0-22.59-8.82-22.59-21S589.13,95,601.31,95c12,0,20.68,8.36,20.68,21.16C622,116.91,621.91,118.06,621.83,119Zm-32.16-6.36h23.2c-.76-5.9-5.28-10-11.56-10A11.3,11.3,0,0,0,589.67,112.62Z"/></svg>